<svg width="102" height="102" viewBox="0 0 102 102" fill="none" xmlns="http://www.w3.org/2000/svg">
<mask id="mask0_767_2676" style="mask-type:luminance" maskUnits="userSpaceOnUse" x="18" y="17" width="74" height="64">
<path d="M18.8594 17.4929H91.7734V80.4844H18.8594V17.4929Z" fill="white"/>
</mask>
<g mask="url(#mask0_767_2676)">
<path d="M22.3131 46.5301C21.1224 45.3555 20.1761 44.2137 19.4581 43.1045C20.3391 38.4877 22.215 34.2304 24.8578 30.5599C25.5104 31.4081 26.3099 32.2725 27.2884 33.17C27.4845 33.3495 27.6961 33.5285 27.9083 33.708C25.3636 37.7863 23.7813 42.5333 23.455 47.6232C23.0472 47.2642 22.6555 46.9052 22.2965 46.5467L22.3131 46.5301ZM23.4062 49.4992C23.4062 49.3363 23.4062 49.1729 23.4062 49.0099C22.9984 48.749 22.574 48.4714 22.1823 48.2105C21.0405 47.411 19.9966 46.6281 19.0504 45.8453C18.9528 46.8725 18.8875 47.9168 18.8875 48.9773C18.8875 53.4633 19.8332 57.7372 21.5302 61.6033C21.5629 61.6199 21.5951 61.6526 21.6277 61.6686L21.6604 61.375L27.6474 64.8499C24.9558 60.3633 23.4062 55.111 23.4062 49.4992ZM29.0502 32.0115C34.4825 24.4749 43.3239 19.5811 53.3243 19.5811C63.3241 19.5811 67.0922 22.1097 72.247 26.3182C66.5863 20.8537 58.8868 17.4929 50.3879 17.4929C41.8884 17.4929 33.3241 21.2449 27.5986 27.2645C27.4025 28.4878 27.7615 29.8585 28.6097 31.3101C28.7405 31.5384 28.8873 31.7672 29.0502 31.9954V32.0115ZM28.8219 66.6605C28.202 66.3669 27.582 66.0893 26.9786 65.7957C25.347 65.0128 23.83 64.1973 22.3945 63.3817C30.0779 78.3081 48.0061 84.5067 63.1607 77.7696C58.104 79.5314 40.29 83.0224 28.8058 66.6605H28.8219ZM91.7574 56.5465C91.7574 56.5465 91.7247 60.0702 91.7247 60.1844C91.7247 61.3096 91.0233 61.1955 91.0233 61.1955L90.8765 71.3261C90.7297 72.4187 88.9518 72.5655 88.9518 72.5655L85.6076 72.7777C84.6125 74.4742 83.3887 74.5561 83.3887 74.5561H80.5503C79.0334 74.5561 77.8915 72.7289 77.8915 72.7289L63.6012 72.7777C62.9812 75.3224 61.0565 75.339 61.0565 75.339H61.0077L58.2508 75.3551L36.8317 68.0473L55.7056 71.587C55.51 71.0158 55.3792 70.4612 55.3305 70.0701C55.1837 68.455 55.1022 65.584 56.3582 63.7402C56.7006 63.2349 57.7777 62.354 58.9029 62.2886C58.9029 62.2886 57.027 61.6033 55.8197 63.3978C55.8197 63.3978 55.0208 64.1973 54.7759 67.5741C54.7759 67.5741 54.7598 69.0423 54.8246 70.0701C54.3842 70.0047 53.3731 69.7598 53.3731 69.7598C52.9653 62.7617 55.5261 61.5872 55.5261 61.5872V59.4829C55.2978 59.4176 55.3305 59.2054 55.3305 59.2054V57.8026C55.2003 57.8026 55.0856 57.7699 54.9715 57.7211C54.9227 59.0425 54.9066 60.1517 54.9066 60.9345C52.3126 62.3701 52.5902 68.8462 52.5902 68.8462L29.915 62.631L50.2411 63.4305L50.2084 60.0375L29.7682 56.7909L50.1591 54.752L50.1269 51.6527L29.2297 51.2771L50.0776 46.9379L50.045 43.92L29.9804 46.0409L50.0123 39.9886L49.9801 36.4161L29.1156 40.6412L52.0678 31.0331C52.7858 30.8535 53.5199 30.7555 54.254 30.7721L73.4054 31.0004C74.6288 31.0331 75.5258 31.4408 75.6726 32.6481L57.1904 32.8763C56.7987 32.8763 56.4724 33.1046 56.3255 33.447C56.6845 33.2675 57.0109 33.3168 57.0109 33.3168L81.1049 33.5612C87.8099 34.9645 88.5767 39.1891 88.5767 39.1891C89.8975 43.8546 90.6809 50.0538 90.6809 50.0538C91.0887 50.3313 91.2516 50.9508 91.2516 50.9508L91.2028 55.6329C91.5452 56.0734 91.7574 56.5139 91.7574 56.5139V56.5465ZM67.6794 39.793C67.9892 42.8923 68.3155 50.0865 68.3155 50.0865C73.6176 50.4781 89.0986 50.0865 89.0986 50.0865C88.5274 43.7078 87.5977 39.8744 87.5977 39.8744L67.6955 39.8091L67.6794 39.793ZM88.9518 54.752L88.2664 55.0944L74.2049 55.1598L71.986 54.5886L74.0254 56.0241L88.2177 55.8773L88.9518 54.7681V54.752ZM87.8747 57.884L74.9878 58.1123L72.9323 57.525L74.7102 58.8957L87.8099 58.6508L88.544 57.5416L87.8587 57.884H87.8747ZM70.1427 57.5904L69.6862 57.264C69.5393 57.1665 69.3598 57.3455 69.3759 57.525L69.4413 60.2165C69.4413 60.4126 69.5393 60.5755 69.7022 60.6736L70.2242 60.9999C70.2242 60.9999 70.1427 57.6718 70.1427 57.6064V57.5904ZM58.4952 36.4322L64.7918 36.6444L64.7596 37.7375L59.996 38.1453L64.2865 38.3735C65.0206 38.4877 65.3303 37.917 65.3303 37.917L65.363 36.4488C65.265 36.0083 64.7596 36.0571 64.7596 36.0571L58.4952 36.4161V36.4322ZM59.099 66.1547C59.1805 66.1547 59.2459 66.1547 59.3107 66.1874C58.9849 65.6162 58.5766 65.2738 58.1201 65.2904C57.1904 65.3225 56.489 66.9215 56.5704 68.8628C56.6358 70.7876 57.4513 72.3372 58.3976 72.3045C58.7234 72.3045 59.001 72.1089 59.2459 71.7665C58.5278 71.7173 57.9079 70.5266 57.8591 69.0096C57.7937 67.46 58.3649 66.1874 59.099 66.1547ZM56.6679 59.2868V60.4126C56.6679 60.4126 60.9096 59.6785 62.3939 63.3651C62.4593 63.5285 62.2964 58.8791 56.6679 59.2868ZM65.1347 53.3979L55.2163 51.6688L63.6499 53.8711L63.6178 56.269L56.0319 56.6934L65.0855 57.248L65.1181 53.3653L65.1347 53.3979ZM65.9015 49.744L65.8035 39.891L57.1577 39.9725L57.1084 45.5023C57.1084 45.5023 57.027 47.2969 58.3649 47.5091L65.9015 49.744ZM71.3173 64.3768L66.7171 64.3275C66.5215 64.3275 66.3581 64.4909 66.3581 64.6865V66.6605C66.342 66.8727 66.5049 67.0356 66.7171 67.0356L73.601 67.101C73.601 67.101 73.7152 64.4909 71.3173 64.3602V64.3768ZM88.3645 60.2004L87.6791 60.5428L75.5911 60.8038L73.5357 60.2165L75.4282 61.5379L87.5977 61.1628L88.3645 60.1844V60.2004ZM90.5341 63.9524L89.9795 64.0665C89.9795 64.0665 88.4459 64.2299 88.4298 66.6766H90.1424C90.3219 66.6766 90.4526 66.5298 90.4687 66.3503L90.5341 63.9524ZM90.9253 57.264C90.9253 57.1011 90.7624 57.0031 90.6155 57.0845L90.1912 57.3294C90.061 57.4109 89.9795 57.5416 89.9795 57.6884L89.9468 60.739C90.8277 60.7063 90.8765 60.2492 90.8765 60.2492L90.9092 57.248L90.9253 57.264Z" fill="white"/>
</g>
<path d="M26.8317 64.3274C28.3653 65.2737 30.0452 66.2034 31.8236 67.1009C30.2574 66.4322 28.7404 65.7468 27.2883 65.0454C24.9718 63.9196 22.8188 62.7451 20.9262 61.5705C14.0911 57.3293 10.2416 52.9413 11.2688 49.7113C11.9054 47.7046 14.3686 46.4325 18.0879 45.8774C18.0064 46.6608 17.9898 47.4436 17.9898 48.2592V48.406C17.0275 49.0747 16.3748 49.9069 16.049 50.8532C15.2822 53.235 16.7665 56.1709 19.9151 59.1565C21.7096 60.8691 24.0422 62.6309 26.8151 64.3113L26.8317 64.3274ZM18.4796 44.1482C19.6863 45.2579 21.1224 46.3505 22.7208 47.4763C23.1773 47.786 23.6831 48.1124 24.1729 48.4226C25.086 48.9772 26.8151 49.9396 28.936 50.7063C28.936 50.7063 28.936 50.7063 28.9526 50.7063C26.5381 49.0747 24.4665 47.4109 22.8349 45.7959C21.0404 44.0341 19.7683 42.3215 19.0996 40.7226C18.4796 39.2544 18.3328 37.8842 18.7732 36.677C19.2298 35.421 20.2736 34.4093 21.7745 33.6752L23.0798 31.4241C18.0879 31.6363 14.711 32.909 13.8467 35.3068C12.9819 37.7047 14.7764 40.8367 18.463 44.1482H18.4796ZM29.1482 30.5759C28.1365 28.8468 27.8102 27.2317 28.2999 25.845C28.3975 25.5513 28.5609 25.2582 28.7565 24.9967C29.2296 24.2626 29.9798 23.6593 30.9588 23.1861C31.9704 22.4194 33.0303 21.7019 34.1401 21.0819C28.5936 21.0004 24.7597 22.1584 23.8793 24.6217C23.4061 25.927 23.8139 27.46 24.9231 29.1404C25.6245 30.1847 26.6035 31.2773 27.8268 32.4192C28.0877 32.6641 28.3814 32.8923 28.6589 33.1372C29.4906 33.7899 32.4109 35.9922 35.5102 37.1174C35.5102 37.1174 35.5263 37.1174 35.5429 37.1174C32.5738 34.8825 30.3388 32.648 29.1316 30.5759H29.1482Z" fill="white"/>
</svg>
